<svg width="79" height="61" viewBox="0 0 79 61" fill="none" xmlns="http://www.w3.org/2000/svg">
<rect x="0.5" y="0.5" width="78" height="60" rx="3.5" stroke="url(#paint0_linear)"/>
<path d="M63.632 48L57.152 38.5286H50V48V14H56.768C59.744 14 62.32 14.5019 64.496 15.5057C66.704 16.5095 68.4 17.9343 69.584 19.78C70.768 21.6257 71.36 23.8114 71.36 26.3371C71.36 28.8629 70.752 31.0486 69.536 32.8943C68.352 34.7076 66.656 36.1 64.448 37.0714L71.984 48H63.632ZM63.488 26.3371C63.488 24.4267 62.88 22.9695 61.664 21.9657C60.448 20.9295 58.672 20.4114 56.336 20.4114H50V32.2629H56.336C58.672 32.2629 60.448 31.7448 61.664 30.7086C62.88 29.6724 63.488 28.2152 63.488 26.3371Z" fill="#395AB0"/>
<path d="M38.56 47L38.512 26.84L28.624 43.448H25.12L15.28 27.272V47H7.984V13.4H14.416L26.992 34.28L39.376 13.4H45.76L45.856 47H38.56Z" fill="white"/>
<defs>
<linearGradient id="paint0_linear" x1="1" y1="33" x2="88.5" y2="32.5" gradientUnits="userSpaceOnUse">
<stop stop-color="white"/>
<stop offset="1" stop-color="#395AB0"/>
</linearGradient>
</defs>
</svg>
