<svg width="520" height="463" viewBox="0 0 520 463" fill="none" xmlns="http://www.w3.org/2000/svg">
<rect width="520" height="463" rx="109" fill="#13A3F3"/>
<path d="M421 173.5C421 194.5 415.333 213.5 404 230.5C392.667 247.5 376.167 260 354.5 268L431 412H307L246 286.5H205V412V68H305C329.667 68 350.667 72.8333 368 82.5C385.667 91.8333 398.833 104.667 407.5 121C416.5 137 421 154.5 421 173.5ZM308.5 178C308.5 169 305.5 161.5 299.5 155.5C293.5 149.5 286.167 146.5 277.5 146.5H205V210H277.5C286.167 210 293.5 207 299.5 201C305.5 194.667 308.5 187 308.5 178Z" fill="white"/>
<circle cx="138.5" cy="108.5" r="40.5" fill="white"/>
<circle cx="138.5" cy="245.5" r="40.5" fill="white"/>
<circle cx="138.5" cy="371.5" r="40.5" fill="white"/>
</svg>
