<svg width="520" height="463" viewBox="0 0 520 463" fill="none" xmlns="http://www.w3.org/2000/svg">
<rect width="520" height="463" rx="60" fill="#395AB0"/>
<path d="M389.726 176.406C389.726 193.804 385.037 209.545 375.659 223.629C366.282 237.714 352.629 248.07 334.701 254.698L398 374H295.398L244.925 270.025H211V374V89H293.743C314.153 89 331.529 93.0044 345.872 101.013C360.49 108.746 371.384 119.378 378.555 132.91C386.002 146.166 389.726 160.664 389.726 176.406ZM296.639 180.134C296.639 172.677 294.157 166.464 289.192 161.493C284.228 156.522 278.16 154.036 270.989 154.036H211V206.645H270.989C278.16 206.645 284.228 204.16 289.192 199.189C294.157 193.942 296.639 187.59 296.639 180.134Z" fill="white"/>
<ellipse cx="156" cy="122.5" rx="34" ry="33.5" fill="white"/>
<circle cx="156" cy="236" r="34" fill="white"/>
<ellipse cx="156" cy="340.5" rx="34" ry="33.5" fill="white"/>
</svg>
