<svg width="184" height="177" viewBox="0 0 184 177" fill="none" xmlns="http://www.w3.org/2000/svg">
<path d="M6.82753 143.266H177.303C177.303 143.266 183.672 142.93 183.672 135.509V120.881H0.111938V138.722C0.558129 140.099 1.44581 141.29 2.6376 142.112C3.82938 142.933 5.25879 143.339 6.70443 143.266" fill="#BAC5F4"/>
<path d="M0.111899 10.0734L0 126.477L183.671 124.798V6.71559C183.671 6.71559 184.791 0 177.639 0H7.04016C7.04016 0 -0.671587 -4.26966e-06 0.111899 10.1741" fill="#BAC5F4"/>
<path d="M77.3412 174.494V142.147L104.204 143.266V171.695L77.3412 174.494Z" fill="#BAC5F4"/>
<path d="M34.6972 171.248L146.322 171.281L146.389 176.844H34.6972V171.248Z" fill="#BAC5F4"/>
<path d="M90.2464 128.827C91.3089 128.827 92.3477 129.142 93.2312 129.733C94.1147 130.323 94.8032 131.162 95.2098 132.144C95.6165 133.126 95.7229 134.206 95.5156 135.248C95.3083 136.29 94.7966 137.247 94.0452 137.999C93.2939 138.75 92.3366 139.262 91.2945 139.469C90.2523 139.676 89.1721 139.57 88.1904 139.163C87.2087 138.757 86.3696 138.068 85.7793 137.185C85.1889 136.301 84.8738 135.262 84.8738 134.2C84.8738 132.775 85.4399 131.408 86.4474 130.401C87.4549 129.393 88.8215 128.827 90.2464 128.827" fill="white"/>
<path d="M178.075 5.59644H5.70825V118.642H178.075V5.59644Z" fill="#F8F8FF"/>
<path d="M14.3601 11.4165C14.8914 11.4165 15.4108 11.574 15.8525 11.8692C16.2943 12.1644 16.6386 12.5839 16.8419 13.0747C17.0452 13.5656 17.0984 14.1057 16.9948 14.6268C16.8911 15.1479 16.6352 15.6265 16.2596 16.0022C15.8839 16.3779 15.4053 16.6337 14.8843 16.7374C14.3632 16.841 13.8231 16.7878 13.3322 16.5845C12.8414 16.3812 12.4218 16.0369 12.1267 15.5951C11.8315 15.1534 11.674 14.634 11.674 14.1027C11.674 13.3903 11.957 12.7071 12.4607 12.2033C12.9645 11.6995 13.6477 11.4165 14.3601 11.4165" fill="#FA5F5D"/>
<path d="M23.5382 11.4165C24.0695 11.4165 24.5888 11.574 25.0306 11.8692C25.4723 12.1644 25.8166 12.5839 26.0199 13.0747C26.2232 13.5656 26.2765 14.1057 26.1728 14.6268C26.0692 15.1479 25.8133 15.6265 25.4376 16.0022C25.0619 16.3779 24.5832 16.6337 24.0622 16.7374C23.5411 16.841 23.001 16.7878 22.5102 16.5845C22.0194 16.3812 21.5997 16.0369 21.3046 15.5951C21.0094 15.1534 20.8519 14.634 20.8519 14.1027C20.8519 13.75 20.9213 13.4006 21.0563 13.0747C21.1913 12.7488 21.3892 12.4527 21.6386 12.2033C21.8881 11.9538 22.1843 11.756 22.5102 11.621C22.8361 11.486 23.1854 11.4165 23.5382 11.4165" fill="#FDBC4E"/>
<path d="M33.1639 11.4165C33.6952 11.4165 34.2145 11.574 34.6563 11.8692C35.098 12.1644 35.4423 12.5839 35.6456 13.0747C35.8489 13.5656 35.9021 14.1057 35.7985 14.6268C35.6948 15.1479 35.439 15.6265 35.0633 16.0022C34.6876 16.3779 34.2089 16.6337 33.6878 16.7374C33.1668 16.841 32.6267 16.7878 32.1359 16.5845C31.645 16.3812 31.2254 16.0369 30.9303 15.5951C30.6351 15.1534 30.4776 14.634 30.4776 14.1027C30.4776 13.3903 30.7605 12.7071 31.2643 12.2033C31.7681 11.6995 32.4514 11.4165 33.1639 11.4165" fill="#37CD58"/>
<path d="M70.6257 31.0595C70.5852 31.7633 70.2685 32.4226 69.7445 32.8942C69.2206 33.3658 68.5316 33.6115 67.8275 33.5779H34.8092C33.1079 33.5779 31.4514 32.4586 31.4514 31.0595V26.034C31.4514 24.635 33.0743 23.5045 34.8092 23.5045H67.7603C68.4661 23.4454 69.1668 23.6674 69.7097 24.1223C70.2526 24.5772 70.5939 25.2281 70.6593 25.9333C70.6593 25.9333 70.6593 26.0005 70.6593 26.034L70.6257 31.0595Z" fill="url(#paint0_linear)"/>
<path d="M150.094 64.4921C150.069 64.8662 149.972 65.2318 149.806 65.5682C149.641 65.9045 149.41 66.205 149.129 66.4523C148.847 66.6997 148.519 66.8892 148.164 67.0099C147.81 67.1306 147.434 67.1802 147.06 67.1559H34.8092C33.0855 67.1559 31.4514 65.9695 31.4514 64.4921V39.5996C31.4514 38.1222 33.0967 36.9358 34.8092 36.9358H147.049C147.423 36.9099 147.799 36.958 148.154 37.0773C148.51 37.1966 148.838 37.3849 149.121 37.6312C149.404 37.8776 149.635 38.1772 149.802 38.513C149.969 38.8489 150.068 39.2143 150.094 39.5884V39.5884V64.4921Z" fill="url(#paint1_linear)"/>
<path d="M68.3871 85.7021C68.3871 86.0617 68.3162 86.4178 68.1782 86.7498C68.0403 87.0819 67.8381 87.3835 67.5833 87.6372C67.3286 87.8909 67.0261 88.0919 66.6935 88.2285C66.3608 88.365 66.0046 88.4346 65.645 88.4331H34.8092C33.0743 88.4331 31.4514 87.2131 31.4514 85.7133V72.103C31.4514 70.6144 33.1079 69.3944 34.8092 69.3944H65.4547C65.8129 69.3701 66.1723 69.417 66.5123 69.5324C66.8523 69.6477 67.1661 69.8293 67.4356 70.0665C67.7051 70.3038 67.925 70.592 68.0826 70.9146C68.2401 71.2373 68.3322 71.5879 68.3535 71.9463C68.3535 71.9463 68.3535 72.0471 68.3535 72.103L68.3871 85.7021Z" fill="url(#paint2_linear)"/>
<path d="M108.681 85.7022C108.684 86.0588 108.616 86.4125 108.482 86.743C108.348 87.0735 108.15 87.3742 107.899 87.628C107.649 87.8817 107.35 88.0835 107.022 88.2217C106.693 88.3598 106.34 88.4317 105.983 88.4332H75.1027C73.3567 88.4332 71.7449 87.2132 71.7449 85.7134V72.1031C71.7449 70.6145 73.4238 69.3945 75.1027 69.3945H105.782C106.499 69.3516 107.203 69.5952 107.74 70.0716C108.278 70.5481 108.604 71.2184 108.647 71.9352C108.647 71.9912 108.647 72.0472 108.647 72.1031L108.681 85.7022Z" fill="url(#paint3_linear)"/>
<path d="M150.094 85.7022C150.047 86.4695 149.698 87.1871 149.123 87.6972C148.548 88.2072 147.794 88.4679 147.027 88.422H116.381C115.595 88.4783 114.819 88.2255 114.217 87.7174C113.615 87.2094 113.235 86.4863 113.158 85.7022V72.1032C113.237 71.3211 113.618 70.6008 114.22 70.0951C114.822 69.5894 115.597 69.3381 116.381 69.3945H147.016C147.396 69.3702 147.777 69.421 148.137 69.544C148.497 69.667 148.83 69.8598 149.116 70.1113C149.401 70.3628 149.635 70.6682 149.803 71.0099C149.97 71.3517 150.069 71.7232 150.094 72.1032V72.1032V85.7022Z" fill="url(#paint4_linear)"/>
<path d="M108.681 93.4587C108.575 93.7074 108.413 93.928 108.207 94.1029C108.001 94.2777 107.757 94.4021 107.494 94.466C107.427 94.466 107.36 94.466 107.293 94.0183H73.4462C72.7523 94.466 71.7225 94.0743 71.7449 93.4587V93.0222C71.7449 92.4066 72.7523 91.9029 73.4462 91.7798H107.293C107.553 91.8283 107.792 91.955 107.978 92.143C108.164 92.331 108.288 92.5714 108.334 92.8319C108.334 92.8991 108.334 92.955 108.681 93.0222V93.4587Z" fill="#E9EDFB"/>
<path d="M108.681 97.8686C108.581 98.1408 108.417 98.3849 108.203 98.5799C107.989 98.7748 107.73 98.9148 107.45 98.9878C107.45 98.9878 107.349 98.9879 107.293 98.5066H73.4462C72.7523 98.999 71.7225 98.5066 71.7449 97.8798V97.3761C71.7449 96.7717 72.7523 96.4247 73.4462 96.2568H107.293C107.588 96.3384 107.864 96.4798 108.103 96.6723C108.342 96.8649 108.538 97.1044 108.681 97.3761V97.8686Z" fill="#E9EDFB"/>
<path d="M108.681 102.29C108.574 102.592 108.392 102.863 108.151 103.074C107.909 103.286 107.618 103.432 107.304 103.498C107.286 103.324 107.286 103.147 107.304 102.972H73.4575C73.3068 103.071 73.1346 103.131 72.9556 103.149C72.7766 103.166 72.5961 103.141 72.4292 103.074C72.2623 103.007 72.1139 102.9 71.9968 102.764C71.8796 102.627 71.7971 102.465 71.7562 102.29V101.853C71.7562 101.249 72.7635 101.003 73.4575 100.734H107.304C107.6 100.815 107.876 100.957 108.114 101.149C108.353 101.342 108.55 101.581 108.692 101.853L108.681 102.29Z" fill="#E9EDFB"/>
<path d="M108.681 106.7C108.352 107.412 107.88 108.048 107.293 108.569H73.4462C72.7523 108.009 71.7225 107.315 71.7449 106.7V106.263C71.7449 105.647 72.7523 104.998 73.4462 105.211H107.293C107.431 105.178 107.575 105.179 107.712 105.215C107.849 105.251 107.975 105.32 108.079 105.416C108.183 105.513 108.262 105.633 108.308 105.767C108.355 105.901 108.367 106.045 108.345 106.185C108.345 106.185 108.345 106.185 108.681 106.263V106.7Z" fill="#E9EDFB"/>
<path d="M89.8994 111.109C89.8994 111.658 89.53 111.927 88.8921 111.927H73.312C72.6852 111.927 71.7562 111.658 71.7562 111.109V110.707C71.7562 110.158 72.6852 109.699 73.312 109.699H88.9033C89.0355 109.699 89.1666 109.725 89.2888 109.776C89.411 109.827 89.5221 109.901 89.6156 109.994C89.7092 110.088 89.7834 110.199 89.834 110.321C89.8846 110.443 89.9106 110.574 89.9106 110.707L89.8994 111.109Z" fill="#E9EDFB"/>
<path d="M150.094 93.4587C149.456 94.0743 149.568 94.466 148.874 94.0183H115.016C114.445 94.5108 113.897 94.0967 113.897 93.5258C113.897 93.5258 113.897 93.5258 114.277 93.4587V93.0222C113.93 92.4289 114.423 91.9029 115.016 91.7798H148.874C149.568 91.9589 149.456 92.4066 150.094 93.0222V93.4587Z" fill="#E9EDFB"/>
<path d="M150.094 97.8686C149.456 98.4842 149.568 98.9878 148.874 98.4954H115.016C114.4 98.9878 113.897 98.4954 114.277 97.8686V97.3761C113.897 96.7717 114.367 96.4247 115.016 96.2568H148.874C149.568 96.4807 149.456 96.8277 150.094 97.3761V97.8686Z" fill="#E9EDFB"/>
<path d="M150.094 102.29C149.456 102.894 149.568 103.498 148.874 102.972H115.016C114.378 103.454 113.897 102.972 114.277 102.29V101.853C113.897 101.249 114.367 101.003 115.016 100.734H148.874C149.568 100.991 149.456 101.238 150.094 101.853V102.29Z" fill="#E9EDFB"/>
<path d="M150.094 106.699C149.456 107.315 149.568 108.009 148.874 108.569H115.016C114.355 107.931 113.896 107.36 114.277 106.699V106.263C114.178 106.152 114.12 106.011 114.111 105.862C114.102 105.713 114.144 105.566 114.23 105.444C114.315 105.323 114.439 105.233 114.582 105.191C114.725 105.149 114.878 105.156 115.016 105.211H148.874C149.568 104.998 149.456 105.647 150.094 106.263V106.699Z" fill="#E9EDFB"/>
<path d="M131.48 111.109C131.48 111.658 131.48 111.927 130.887 111.927H115.284C114.658 111.927 114.277 111.658 114.277 111.109V110.707C114.277 110.439 114.383 110.183 114.572 109.994C114.761 109.805 115.017 109.699 115.284 109.699H130.864C131.491 109.699 131.458 110.192 131.458 110.707L131.48 111.109Z" fill="#E9EDFB"/>
<path d="M67.2679 93.4587C67.7044 94.0743 67.4582 94.466 66.7642 94.0183H32.9065C32.783 94.1157 32.6362 94.1792 32.4807 94.2028C32.3252 94.2263 32.1664 94.209 32.0196 94.1526C31.8728 94.0961 31.7434 94.0025 31.6437 93.8808C31.5441 93.7591 31.4778 93.6137 31.4514 93.4587V93.0222C31.5636 92.7056 31.7571 92.4242 32.0125 92.2061C32.2679 91.988 32.5762 91.841 32.9065 91.7798H66.7642C67.4582 91.9589 67.7044 92.4066 67.2679 93.0222V93.4587Z" fill="#E9EDFB"/>
<path d="M67.2679 97.8686C67.7044 98.4842 67.4582 98.9878 66.7642 98.4954H32.9065C32.2349 99.0214 31.664 98.4954 31.4514 97.8686V97.3761C31.5969 96.7717 32.2125 96.4247 32.9065 96.2568H66.7642C67.4582 96.4807 67.7044 96.8277 67.2679 97.3761V97.8686Z" fill="#E9EDFB"/>
<path d="M67.2679 102.29C67.7044 102.894 67.4582 103.498 66.7642 102.972H32.9065C32.2237 103.487 31.664 102.972 31.4514 102.29V101.853C31.5969 101.249 32.2125 101.003 32.9065 100.734H66.7642C67.4582 100.991 67.7044 101.238 67.2679 101.853V102.29Z" fill="#E9EDFB"/>
<path d="M57.1945 105.211H66.7642C67.4582 104.998 67.7044 105.647 67.2679 106.263V106.7C67.7044 107.315 67.4582 108.009 66.7642 108.569H32.9065C32.2502 108.1 31.7446 107.451 31.4514 106.7V106.263C31.4758 106.097 31.5331 105.938 31.62 105.795C31.7068 105.652 31.8214 105.528 31.957 105.43C32.0926 105.332 32.2465 105.262 32.4095 105.224C32.5726 105.187 32.7416 105.182 32.9065 105.211H57.1945Z" fill="#E9EDFB"/>
<path d="M50.4789 111.11C50.4789 111.658 50.1654 111.927 49.4827 111.927H32.6937C32.0221 111.927 31.4177 111.658 31.4177 111.11V110.707C31.4694 110.411 31.6282 110.145 31.8635 109.959C32.0989 109.774 32.3944 109.681 32.6937 109.699H49.4827C49.61 109.695 49.737 109.716 49.8562 109.761C49.9755 109.806 50.0845 109.874 50.1772 109.961C50.2698 110.049 50.3443 110.154 50.3961 110.27C50.4478 110.387 50.476 110.512 50.4789 110.639C50.4789 110.639 50.4789 110.639 50.4789 110.718V111.11Z" fill="#E9EDFB"/>
<defs>
<linearGradient id="paint0_linear" x1="31.4514" y1="28.5412" x2="70.6257" y2="28.5412" gradientUnits="userSpaceOnUse">
<stop stop-color="#F71D69"/>
<stop offset="1" stop-color="#F8C648"/>
</linearGradient>
<linearGradient id="paint1_linear" x1="31.4514" y1="52.0458" x2="150.094" y2="52.0458" gradientUnits="userSpaceOnUse">
<stop stop-color="#E5A4ED"/>
<stop offset="1" stop-color="#7A5BF5"/>
</linearGradient>
<linearGradient id="paint2_linear" x1="31.4514" y1="7811.17" x2="39589.7" y2="7811.17" gradientUnits="userSpaceOnUse">
<stop stop-color="#E5A4ED"/>
<stop offset="1" stop-color="#7A5BF5"/>
</linearGradient>
<linearGradient id="paint3_linear" x1="39740.9" y1="7810.59" x2="40959.7" y2="7810.59" gradientUnits="userSpaceOnUse">
<stop stop-color="#E5A4ED"/>
<stop offset="1" stop-color="#7A5BF5"/>
</linearGradient>
<linearGradient id="paint4_linear" x1="41148.8" y1="7810.39" x2="150.092" y2="7810.39" gradientUnits="userSpaceOnUse">
<stop stop-color="#E5A4ED"/>
<stop offset="1" stop-color="#7A5BF5"/>
</linearGradient>
</defs>
</svg>
