<svg width="223" height="130" viewBox="0 0 223 130" fill="none" xmlns="http://www.w3.org/2000/svg">
<path d="M205.912 0H13.3733C12.6773 -7.90903e-07 11.9882 0.137074 11.3453 0.403397C10.7023 0.669721 10.1181 1.06008 9.62597 1.55218C9.13387 2.04428 8.74352 2.62849 8.4772 3.27145C8.21087 3.91442 8.07379 4.60354 8.07379 5.29948V112.579C8.07379 113.275 8.21087 113.964 8.47719 114.607C8.74351 115.25 9.13387 115.834 9.62597 116.326C10.1181 116.818 10.7023 117.208 11.3453 117.475C11.9882 117.741 12.6773 117.878 13.3733 117.878H205.912C207.318 117.878 208.666 117.32 209.66 116.326C210.653 115.332 211.212 113.984 211.212 112.579V5.29948C211.212 3.89397 210.653 2.54603 209.66 1.55218C208.666 0.558337 207.318 7.98654e-07 205.912 0V0Z" fill="#3F3D56"/>
<path d="M204.107 9.36572H15.1788V115.94H204.107V9.36572Z" fill="white"/>
<path d="M109.481 6.45918C110.551 6.45918 111.419 5.59163 111.419 4.52146C111.419 3.45129 110.551 2.58374 109.481 2.58374C108.411 2.58374 107.544 3.45129 107.544 4.52146C107.544 5.59163 108.411 6.45918 109.481 6.45918Z" fill="white"/>
<path d="M150.077 115.941H15.1788V9.36597L150.077 115.941Z" fill="#F2F2F2"/>
<path d="M44.7403 107.965C54.77 107.965 62.9006 99.8348 62.9006 89.8051C62.9006 79.7754 54.77 71.6448 44.7403 71.6448C34.7106 71.6448 26.58 79.7754 26.58 89.8051C26.58 99.8348 34.7106 107.965 44.7403 107.965Z" fill="#6C63FF"/>
<path d="M48.7831 103.454C44.3153 103.454 39.9478 102.129 36.233 99.6473C32.5181 97.1651 29.6227 93.637 27.913 89.5093C26.2032 85.3816 25.7559 80.8395 26.6275 76.4576C27.4991 72.0756 29.6506 68.0505 32.8098 64.8913C35.969 61.732 39.9941 59.5806 44.3761 58.709C48.7581 57.8373 53.3001 58.2847 57.4278 59.9945C61.5556 61.7042 65.0836 64.5996 67.5658 68.3145C70.048 72.0293 71.3728 76.3968 71.3728 80.8646C71.3728 83.8311 70.7885 86.7686 69.6533 89.5093C68.518 92.25 66.8541 94.7403 64.7564 96.8379C62.6588 98.9356 60.1685 100.6 57.4278 101.735C54.6871 102.87 51.7496 103.454 48.7831 103.454V103.454ZM48.7831 58.5702C44.3737 58.5702 40.0633 59.8777 36.397 62.3275C32.7307 64.7772 29.8732 68.2591 28.1858 72.3329C26.4984 76.4067 26.0568 80.8893 26.9171 85.214C27.7773 89.5387 29.9006 93.5112 33.0186 96.6291C36.1365 99.747 40.109 101.87 44.4337 102.731C48.7584 103.591 53.241 103.149 57.3148 101.462C61.3886 99.7745 64.8705 96.917 67.3202 93.2507C69.77 89.5844 71.0775 85.274 71.0775 80.8646C71.0775 77.9369 70.5009 75.0378 69.3805 72.3329C68.2601 69.628 66.6179 67.1703 64.5476 65.1001C62.4774 63.0299 60.0197 61.3877 57.3148 60.2673C54.6099 59.1469 51.7108 58.5702 48.7831 58.5702L48.7831 58.5702Z" fill="#3F3D56"/>
<path d="M160.371 64.7344H142.723V68.422H160.371V64.7344Z" fill="#3F3D56"/>
<path d="M177.067 44.7563H126.026V46.3368H177.067V44.7563Z" fill="#3F3D56"/>
<path d="M177.067 50.9653H126.026V52.5457H177.067V50.9653Z" fill="#3F3D56"/>
<path d="M177.067 57.1748H126.026V58.7552H177.067V57.1748Z" fill="#3F3D56"/>
<path d="M190.74 15.7439H183.365V23.1192H190.74V15.7439Z" fill="#6C63FF"/>
<path d="M194.164 26.5433H185.209V17.5876H194.164V26.5433ZM185.598 26.154H193.775V17.977H185.598L185.598 26.154Z" fill="#CCCCCC"/>
<path d="M216.516 114.003H198.078V112.674C198.078 112.64 198.072 112.605 198.058 112.573C198.045 112.542 198.026 112.513 198.001 112.488C197.977 112.464 197.948 112.444 197.916 112.431C197.884 112.418 197.85 112.411 197.815 112.411H191.493C191.459 112.411 191.424 112.418 191.392 112.431C191.361 112.444 191.331 112.464 191.307 112.488C191.283 112.512 191.263 112.542 191.25 112.573C191.237 112.605 191.23 112.64 191.23 112.674V114.003H187.279V112.674C187.279 112.64 187.272 112.605 187.259 112.573C187.246 112.542 187.226 112.512 187.202 112.488C187.177 112.464 187.148 112.444 187.116 112.431C187.084 112.418 187.05 112.411 187.015 112.411H180.694C180.659 112.411 180.625 112.418 180.593 112.431C180.561 112.444 180.532 112.464 180.508 112.488C180.483 112.513 180.464 112.542 180.45 112.573C180.437 112.605 180.43 112.64 180.43 112.674V112.674V114.003H176.479V112.674C176.479 112.64 176.473 112.605 176.459 112.573C176.446 112.542 176.427 112.513 176.402 112.488C176.378 112.464 176.349 112.444 176.317 112.431C176.285 112.418 176.251 112.411 176.216 112.411H169.894C169.86 112.411 169.825 112.418 169.794 112.431C169.762 112.444 169.733 112.464 169.708 112.488C169.684 112.512 169.664 112.542 169.651 112.573C169.638 112.605 169.631 112.64 169.631 112.674V112.674V114.003H165.68V112.674C165.68 112.64 165.673 112.605 165.66 112.573C165.647 112.542 165.627 112.512 165.603 112.488C165.578 112.464 165.549 112.444 165.517 112.431C165.485 112.418 165.451 112.411 165.417 112.411H159.095C159.06 112.411 159.026 112.418 158.994 112.431C158.962 112.444 158.933 112.464 158.909 112.488C158.884 112.512 158.865 112.542 158.852 112.573C158.838 112.605 158.831 112.64 158.831 112.674V114.003H154.88V112.674C154.88 112.64 154.874 112.605 154.86 112.573C154.847 112.542 154.828 112.512 154.803 112.488C154.779 112.464 154.75 112.444 154.718 112.431C154.686 112.418 154.652 112.411 154.617 112.411H148.295C148.261 112.411 148.227 112.418 148.195 112.431C148.163 112.444 148.134 112.464 148.109 112.488C148.085 112.513 148.065 112.542 148.052 112.573C148.039 112.605 148.032 112.64 148.032 112.674V112.674V114.003H144.081V112.674C144.081 112.64 144.074 112.605 144.061 112.573C144.048 112.542 144.028 112.513 144.004 112.488C143.979 112.464 143.95 112.444 143.918 112.431C143.886 112.418 143.852 112.411 143.818 112.411H137.496C137.461 112.411 137.427 112.418 137.395 112.431C137.363 112.444 137.334 112.464 137.31 112.488C137.285 112.512 137.266 112.542 137.253 112.573C137.239 112.605 137.232 112.64 137.232 112.674V112.674V114.003H133.281V112.674C133.281 112.64 133.275 112.605 133.261 112.573C133.248 112.542 133.229 112.512 133.204 112.488C133.18 112.464 133.151 112.444 133.119 112.431C133.087 112.418 133.053 112.411 133.018 112.411H83.4985C83.4639 112.411 83.4296 112.418 83.3977 112.431C83.3657 112.444 83.3367 112.464 83.3122 112.488C83.2878 112.513 83.2683 112.542 83.2551 112.573C83.2419 112.605 83.2351 112.64 83.2351 112.674V112.674V114.003H79.284V112.674C79.284 112.64 79.2772 112.605 79.264 112.573C79.2507 112.542 79.2313 112.513 79.2069 112.488C79.1824 112.464 79.1534 112.444 79.1214 112.431C79.0895 112.418 79.0552 112.411 79.0206 112.411H72.699C72.6644 112.411 72.6301 112.418 72.5982 112.431C72.5662 112.444 72.5372 112.464 72.5127 112.488C72.4883 112.512 72.4689 112.542 72.4556 112.573C72.4424 112.605 72.4356 112.64 72.4356 112.674V112.674V114.003H68.4846V112.674C68.4846 112.64 68.4777 112.605 68.4645 112.573C68.4513 112.542 68.4319 112.513 68.4074 112.488C68.383 112.464 68.3539 112.444 68.322 112.431C68.29 112.418 68.2558 112.411 68.2212 112.411H61.8995C61.8649 112.411 61.8306 112.418 61.7987 112.431C61.7667 112.444 61.7377 112.464 61.7132 112.488C61.6888 112.513 61.6694 112.542 61.6561 112.573C61.6429 112.605 61.6361 112.64 61.6361 112.674V112.674V114.003H57.6851V112.674C57.6851 112.64 57.6782 112.605 57.665 112.573C57.6518 112.542 57.6324 112.513 57.6079 112.488C57.5834 112.464 57.5544 112.444 57.5225 112.431C57.4905 112.418 57.4563 112.411 57.4217 112.411H51.1C51.0654 112.411 51.0312 112.418 50.9992 112.431C50.9672 112.444 50.9382 112.464 50.9137 112.488C50.8893 112.512 50.8699 112.542 50.8566 112.573C50.8434 112.605 50.8366 112.64 50.8366 112.674V112.674V114.003H46.8856V112.674C46.8856 112.64 46.8788 112.605 46.8655 112.573C46.8523 112.542 46.8329 112.513 46.8084 112.488C46.784 112.464 46.7549 112.444 46.723 112.431C46.691 112.418 46.6568 112.411 46.6222 112.411H40.3005C40.2659 112.411 40.2317 112.418 40.1997 112.431C40.1678 112.444 40.1387 112.464 40.1143 112.488C40.0898 112.512 40.0704 112.542 40.0572 112.573C40.0439 112.605 40.0371 112.64 40.0371 112.674V112.674V114.003H36.0861V112.674C36.0861 112.64 36.0793 112.605 36.066 112.573C36.0528 112.542 36.0334 112.512 36.0089 112.488C35.9845 112.464 35.9554 112.444 35.9235 112.431C35.8915 112.418 35.8573 112.411 35.8227 112.411H29.501C29.4312 112.411 29.3642 112.439 29.3148 112.488C29.2654 112.537 29.2376 112.604 29.2376 112.674V114.003H25.2866V112.674C25.2866 112.64 25.2798 112.605 25.2666 112.573C25.2533 112.542 25.2339 112.513 25.2095 112.488C25.185 112.464 25.156 112.444 25.124 112.431C25.0921 112.418 25.0578 112.411 25.0232 112.411H18.7016C18.6317 112.411 18.5647 112.439 18.5153 112.488C18.4659 112.537 18.4382 112.604 18.4382 112.674V114.003H6.32164C4.64503 114.003 3.03711 114.669 1.85157 115.854C0.666032 117.04 0 118.648 0 120.324V123.183C3.99325e-06 124.86 0.666032 126.467 1.85157 127.653C3.03711 128.839 4.64503 129.505 6.32164 129.505H216.516C218.193 129.505 219.801 128.839 220.987 127.653C222.172 126.467 222.838 124.86 222.838 123.183V120.324C222.838 119.494 222.675 118.672 222.357 117.905C222.039 117.138 221.574 116.441 220.987 115.854C220.4 115.267 219.703 114.802 218.936 114.484C218.169 114.166 217.347 114.003 216.516 114.003V114.003Z" fill="#3F3D56"/>
</svg>
